<svg data-v-423bf9ae="" xmlns="http://www.w3.org/2000/svg" viewBox="0 0 415 90" class="iconLeft"><!----><!----><!----><g data-v-423bf9ae="" id="4638dbed-94c9-4b6b-8ea6-8d80de753167" fill="white" transform="matrix(4.761904617736313,0,0,4.761904617736313,105.8571412834541,-3.952379038905171)"><path d="M0.87 3.98L0.87 13.78L2.72 13.78L2.72 9.73L6.83 9.73L6.83 7.99L2.72 7.99L2.72 5.71L7.11 5.71L7.11 3.98ZM7.95 8.43L9.38 9.35C9.81 8.62 10.39 8.15 11.31 8.15C12.26 8.15 12.77 8.67 12.77 9.32L12.77 9.49L9.98 9.80C8.69 9.94 7.81 10.70 7.81 11.80C7.81 13.13 8.85 13.97 10.42 13.97C11.91 13.97 12.43 13.24 12.60 12.94L12.80 12.94L12.80 13.78L14.53 13.78L14.53 9.34C14.53 7.71 13.30 6.64 11.41 6.64C9.72 6.64 8.78 7.39 7.95 8.43ZM9.66 11.70C9.66 11.30 9.98 11.06 10.64 10.98L12.77 10.72L12.77 10.84C12.77 11.79 12.08 12.52 10.85 12.52C10.07 12.52 9.66 12.18 9.66 11.70ZM15.88 8.79C15.88 10.08 16.76 10.68 18.70 10.95L18.91 10.98C19.67 11.07 20.38 11.13 20.38 11.65C20.38 12.19 19.73 12.49 19.04 12.49C18.14 12.49 17.22 12.04 16.79 11.13L15.37 12.01C16.02 12.99 17.08 13.97 19.00 13.97C20.85 13.97 22.12 12.98 22.12 11.62C22.12 10.35 21.29 9.79 19.07 9.49L18.86 9.46C18.13 9.37 17.61 9.28 17.61 8.78C17.61 8.36 17.98 8.09 18.61 8.09C19.53 8.09 20.23 8.62 20.76 9.25L22.04 8.25C21.10 7.27 20.09 6.64 18.66 6.64C17.05 6.64 15.88 7.50 15.88 8.79ZM22.57 6.83L22.57 8.37L24.33 8.37L24.33 12.43C24.33 13.22 24.92 13.78 25.70 13.78L27.61 13.78L27.61 12.24L26.49 12.24C26.24 12.24 26.10 12.10 26.10 11.82L26.10 8.37L28 8.37L28 6.83L26.10 6.83L26.10 4.68L24.33 4.68L24.33 6.83ZM35.03 3.98L32.31 13.78L34.22 13.78L34.79 11.62L38.23 11.62L38.81 13.78L40.71 13.78L38.00 3.98ZM35.24 9.91L36.43 5.52L36.60 5.52L37.79 9.91ZM41.61 16.58L43.37 16.58L43.37 12.80L43.54 12.80C43.90 13.38 44.52 13.97 45.75 13.97C47.49 13.97 48.94 12.43 48.94 10.30C48.94 8.18 47.49 6.64 45.75 6.64C44.52 6.64 43.90 7.22 43.54 7.81L43.34 7.81L43.34 6.83L41.61 6.83ZM45.28 12.40C44.18 12.40 43.37 11.62 43.37 10.30C43.37 8.99 44.18 8.20 45.28 8.20C46.34 8.20 47.18 8.96 47.18 10.30C47.18 11.65 46.34 12.40 45.28 12.40ZM50.20 16.58L51.97 16.58L51.97 12.80L52.14 12.80C52.50 13.38 53.12 13.97 54.35 13.97C56.08 13.97 57.54 12.43 57.54 10.30C57.54 8.18 56.08 6.64 54.35 6.64C53.12 6.64 52.50 7.22 52.14 7.81L51.94 7.81L51.94 6.83L50.20 6.83ZM53.87 12.40C52.78 12.40 51.97 11.62 51.97 10.30C51.97 8.99 52.78 8.20 53.87 8.20C54.94 8.20 55.78 8.96 55.78 10.30C55.78 11.65 54.94 12.40 53.87 12.40ZM58.55 8.79C58.55 10.08 59.43 10.68 61.38 10.95L61.59 10.98C62.34 11.07 63.06 11.13 63.06 11.65C63.06 12.19 62.40 12.49 61.71 12.49C60.82 12.49 59.89 12.04 59.46 11.13L58.04 12.01C58.69 12.99 59.75 13.97 61.67 13.97C63.52 13.97 64.79 12.98 64.79 11.62C64.79 10.35 63.97 9.79 61.74 9.49L61.53 9.46C60.80 9.37 60.28 9.28 60.28 8.78C60.28 8.36 60.65 8.09 61.28 8.09C62.20 8.09 62.90 8.62 63.43 9.25L64.71 8.25C63.77 7.27 62.76 6.64 61.33 6.64C59.72 6.64 58.55 7.50 58.55 8.79Z"></path></g><!----><g data-v-423bf9ae="" id="567a24a2-ed3f-42de-a436-2f9fe61e3607" transform="matrix(2.8125,0,0,2.8125,0,0)" stroke="none" fill="white"><path d="M0 16.024L15.976 32 32 15.976 16.024 0 0 16.024zm15.989 7.323l-7.336-7.336 14.694-.022-7.358 7.358z"></path></g><!----></svg>