<svg data-v-423bf9ae="" xmlns="http://www.w3.org/2000/svg" viewBox="0 0 281.8534441002295 60" class="font"><!----><!----><!----><g data-v-423bf9ae="" id="79245e1b-8961-4e8a-b8e1-fd747e5d767c" fill="white" transform="matrix(4.310344803961694,0,0,4.310344803961694,-1.2068977129397922,-4.5258620770450975)"><path d="M6.45 1.05L2.91 1.05C2.91 1.05 0.55 7.45 0.28 10.79L2.62 10.79C2.66 10.16 2.74 9.49 2.84 8.82L5.43 8.82L5.95 10.84C7.59 10.77 9.63 10.79 9.63 10.79ZM3.19 7.03C3.60 5.15 4.09 3.64 4.09 3.64L4.97 7.03ZM19.67 6.99C19.67 4.51 18.26 2.95 16.17 2.95C14.76 2.95 13.97 3.91 13.72 4.68C13.73 4.47 13.85 3.47 13.86 3.21L10.51 3.21C10.51 3.21 10.61 6.27 10.61 9.07C10.61 11.21 10.47 14.97 10.47 14.97C12.04 14.88 14.01 14.97 14.01 14.97C14.01 14.97 13.86 11.62 13.82 9.49C14.17 10.39 15.04 11.05 16.21 11.05C18.30 11.05 19.67 9.48 19.67 6.99ZM16.30 6.99C16.30 8.19 15.93 8.96 14.99 8.96C13.94 8.96 13.59 8.01 13.59 6.99C13.59 5.98 13.94 5.01 14.99 5.01C15.93 5.01 16.30 5.80 16.30 6.99ZM30.27 6.99C30.27 4.51 28.85 2.95 26.77 2.95C25.35 2.95 24.57 3.91 24.32 4.68C24.33 4.47 24.44 3.47 24.46 3.21L21.11 3.21C21.11 3.21 21.21 6.27 21.21 9.07C21.21 11.21 21.07 14.97 21.07 14.97C22.64 14.88 24.61 14.97 24.61 14.97C24.61 14.97 24.46 11.62 24.42 9.49C24.77 10.39 25.63 11.05 26.81 11.05C28.90 11.05 30.27 9.48 30.27 6.99ZM26.89 6.99C26.89 8.19 26.53 8.96 25.59 8.96C24.54 8.96 24.19 8.01 24.19 6.99C24.19 5.98 24.54 5.01 25.59 5.01C26.53 5.01 26.89 5.80 26.89 6.99ZM37.88 3.79C37.88 3.79 36.72 2.95 34.85 2.95C33.07 2.95 31.49 3.79 31.49 5.46C31.49 7.98 34.93 7.77 34.93 8.74C34.93 8.96 34.78 9.14 34.47 9.14C33.35 9.14 31.72 8.04 31.72 8.04L30.97 9.73C30.97 9.73 32.27 11.05 34.90 11.05C36.86 11.05 38.16 9.98 38.16 8.47C38.16 5.91 34.48 6.15 34.48 5.28C34.48 5.04 34.64 4.82 34.97 4.82C35.85 4.82 37.30 5.54 37.30 5.54ZM44.46 11.05C46.61 11.05 48.16 9.91 48.16 7.55C48.16 6.79 48.23 1.05 48.23 1.05L44.88 1.05C44.94 3.98 44.93 6.94 44.93 7.41C44.93 8.30 44.63 8.68 43.72 8.68C43.04 8.68 42.28 8.32 42.28 8.32L42.01 10.50C42.01 10.50 42.73 11.05 44.46 11.05ZM54.60 10.79L57.61 10.79C57.61 10.79 57.34 7.31 57.34 5.78C57.34 4.02 56.24 2.95 53.69 2.95C51.14 2.95 49.57 4.20 49.57 4.20L50.18 6.17C50.18 6.17 51.94 4.98 53.28 4.98C53.93 4.98 54.33 5.26 54.33 5.75C54.33 6.79 49.42 6.10 49.42 9.06C49.42 10.37 50.44 11.05 51.74 11.05C53.69 11.05 54.22 10.07 54.57 9.28ZM53.28 9.24C52.98 9.24 52.77 9.07 52.77 8.62C52.77 7.69 53.90 7.41 54.49 6.97C54.38 8.13 53.98 9.24 53.28 9.24ZM64.55 2.95C63.10 2.95 62.47 4.61 62.26 5.28C62.27 4.89 62.24 3.67 62.26 3.21L59.19 3.21C59.21 3.82 59.22 4.42 59.22 4.94C59.22 7.73 59.11 10.79 59.11 10.79L62.45 10.79C62.38 9.91 62.33 8.64 62.33 7.63C62.33 6.26 62.82 5.98 63.49 5.98C64.06 5.96 64.67 6.20 65.04 6.40L65.67 3.09C65.25 3.00 64.88 2.95 64.55 2.95Z"></path></g><!----><!----></svg>